<svg xmlns="http://www.w3.org/2000/svg" viewBox="0 0 240 240" role="img" aria-labelledby="title desc">
  <title id="title">Mohammed Ammar and Bushra floral monogram</title>
  <desc id="desc">A gold floral wedding monogram with intertwined M and B letters.</desc>
  <circle cx="120" cy="120" r="104" fill="none" stroke="#ffffff" stroke-width="2"/>
  <circle cx="120" cy="120" r="94" fill="none" stroke="#ffffff" stroke-width="1" stroke-dasharray="2 8"/>
  <g fill="#ffffff" stroke="#ffffff" stroke-width="1.5">
    <path d="M43 52c-14-15-31 3-15 14-16 11 1 29 15 14 14 15 31-3 15-14 16-11-1-29-15-14Z"/>
    <path d="M197 52c-14-15-31 3-15 14-16 11 1 29 15 14 14 15 31-3 15-14 16-11-1-29-15-14Z"/>
    <path d="M43 160c-14-15-31 3-15 14-16 11 1 29 15 14 14 15 31-3 15-14 16-11-1-29-15-14Z"/>
    <path d="M197 160c-14-15-31 3-15 14-16 11 1 29 15 14 14 15 31-3 15-14 16-11-1-29-15-14Z"/>
  </g>
  <g fill="#ffffff"><circle cx="43" cy="66" r="4"/><circle cx="197" cy="66" r="4"/><circle cx="43" cy="174" r="4"/><circle cx="197" cy="174" r="4"/></g>
  <text x="120" y="136" text-anchor="middle" fill="#ffffff" font-family="Georgia, serif" font-size="78" font-style="italic" letter-spacing="-14">MB</text>
  <path d="M78 177c27 17 57 17 84 0" fill="none" stroke="#ffffff" stroke-width="2" stroke-linecap="round"/>
</svg>
